<svg width="425" height="119" viewBox="0 0 425 119" fill="none" xmlns="http://www.w3.org/2000/svg">
<path d="M47.98 24.78V24.49H24.6V36.25H36.22V47.97H12.68V12.7H47.98V0.75H0.919998V59.14H47.98V24.78Z" fill="#232021"/>
<path d="M71.47 0.75H59.72V12.5V59.14H71.47V12.5H83.23V47.38H94.99V12.5H106.69V59.14H118.45V12.5V0.75H71.47Z" fill="#232021"/>
<path d="M0.919998 85.72H45.95L22.29 109.37L31.74 118.82L59.31 91.25L53.78 85.72L49.86 81.8L59.31 72.35L68.76 81.8L64.85 85.72L59.31 91.25L86.88 118.82L96.33 109.37L72.68 85.72H118.45V72.35H0.919998V85.72Z" fill="#232021"/>
<path d="M167.47 85.72V81.55L171.38 49.21H180.77L190.94 70.33H191.46L201.63 49.21H211.02L214.93 81.55V85.72H206.59L204.5 61.21H203.98L194.59 80.5H187.81L178.42 61.21H177.9L175.82 85.72H167.47Z" fill="#232021"/>
<path d="M220.67 85.72V81.55L234.75 49.21H245.7L259.78 81.55V85.72H251.96L249.09 78.68H231.36L228.49 85.72H220.67ZM234.23 71.64H246.23L240.23 56.77L234.23 71.64Z" fill="#232021"/>
<path d="M266.05 85.72V78.42H288.74C289.78 78.42 290.52 78.2 290.96 77.77C291.39 77.34 291.61 76.6 291.61 75.55V75.03C291.61 74.13 291.39 73.46 290.96 73.05C290.52 72.63 289.79 72.34 288.74 72.16L274.14 69.81C271.53 69.39 269.53 68.5 268.14 67.12C266.75 65.75 266.05 63.95 266.05 61.72V57.81C266.05 55.2 266.83 53.12 268.4 51.55C269.96 49.98 272.05 49.2 274.66 49.2H298.91V53.89L296.3 56.5H277.26C276.22 56.5 275.48 56.72 275.04 57.15C274.6 57.59 274.39 58.32 274.39 59.37V59.89C274.39 60.79 274.61 61.45 275.04 61.87C275.47 62.29 276.21 62.58 277.26 62.76L291.86 65.11C294.47 65.53 296.47 66.42 297.86 67.8C299.25 69.17 299.95 70.97 299.95 73.2V77.11C299.95 79.72 299.17 81.8 297.6 83.37C296.04 84.93 293.95 85.72 291.34 85.72H266.05Z" fill="#232021"/>
<path d="M318.47 85.72V56.51H304.91V49.21H340.38V53.9L337.77 56.51H326.82V85.72H318.47Z" fill="#232021"/>
<path d="M348.2 85.72V49.21H379.5V53.9L376.89 56.51H356.55V63.81H373.76V70.86H356.55V78.42H379.5V85.72H348.2Z" fill="#232021"/>
<path d="M388.62 85.72V49.21H414.96C417.57 49.21 419.65 49.99 421.22 51.56C422.78 53.12 423.57 55.21 423.57 57.82V64.08C423.57 67.18 422.39 69.44 420.02 70.86C419.01 71.45 417.85 71.89 416.53 72.16L424.35 81.55V85.72H416.79L406.62 72.68H396.97V85.72H388.62ZM396.97 65.38H411.84C414.1 65.38 415.23 64.25 415.23 61.99V59.9C415.23 57.64 414.1 56.51 411.84 56.51H396.97V65.38Z" fill="#232021"/>
<path d="M168.77 28.74V9.44C168.77 6.83 169.55 4.74999 171.12 3.17999C172.69 1.60999 174.77 0.830017 177.38 0.830017H201.63V5.52002L199.02 8.13H180.5C178.24 8.13 177.11 9.26002 177.11 11.52V26.65C177.11 28.91 178.24 30.04 180.5 30.04H195.37V17H203.72V37.34H177.38C174.77 37.34 172.69 36.56 171.12 34.99C169.56 33.43 168.77 31.34 168.77 28.74Z" fill="#232021"/>
<path d="M223.7 37.34V0.830017H250.04C252.65 0.830017 254.73 1.60999 256.3 3.17999C257.86 4.73999 258.65 6.83 258.65 9.44V15.7C258.65 18.8 257.47 21.06 255.1 22.48C254.09 23.07 252.93 23.51 251.61 23.78L259.43 33.17V37.34H251.87L241.7 24.3H232.05V37.34H223.7ZM232.04 17H246.91C249.17 17 250.3 15.87 250.3 13.61V11.52C250.3 9.26002 249.17 8.13 246.91 8.13H232.04V17Z" fill="#232021"/>
<path d="M275.23 37.34V33.17L289.31 0.830017H300.26L314.34 33.17V37.34H306.52L303.65 30.3H285.92L283.05 37.34H275.23ZM288.79 23.26H300.79L294.79 8.39001L288.79 23.26Z" fill="#232021"/>
<path d="M331.46 37.34V0.830017H340.33L359.62 25.35H359.88L359.36 18.3V0.830017H367.71V37.34H358.84L339.54 12.83H339.28L339.8 19.87V37.34H331.46Z" fill="#232021"/>
<path d="M388.21 37.34V0.830017H415.07C417.68 0.830017 419.76 1.60999 421.33 3.17999C422.89 4.73999 423.68 6.83 423.68 9.44V28.74C423.68 31.35 422.9 33.43 421.33 35C419.76 36.56 417.68 37.35 415.07 37.35H388.21V37.34ZM396.55 30.04H411.94C414.2 30.04 415.33 28.91 415.33 26.65V11.52C415.33 9.26002 414.2 8.13 411.94 8.13H396.55V30.04Z" fill="#232021"/>
<path d="M167.47 99.25H178.82V101.25H174.22V113.11H172.04V101.25H167.47V99.25Z" fill="#232021"/>
<path d="M182.72 113.11L188.78 99.17H190.88L196.94 113.11H194.6L193.09 109.66H186.52L185.04 113.11H182.72ZM187.27 107.75H192.34L189.81 101.93L187.27 107.75Z" fill="#232021"/>
<path d="M203.88 113.11V99.25H213.74V101.25H206.06V104.72H212.32V106.72H206.06V111.11H214V113.11H203.88Z" fill="#232021"/>
<path d="M221.37 113.11V99.25H223.54V104.92L229.23 99.25H232.02L225.6 105.59L233.05 113.11H230.08L223.54 106.46V113.11H221.37Z" fill="#232021"/>
<path d="M243.25 113.19L238.53 99.25H240.97L244.27 109.67L247.64 99.23H249.36L252.73 109.67L256.04 99.25H258.43L253.7 113.19H251.78L248.49 102.88L245.19 113.19H243.25Z" fill="#232021"/>
<path d="M271.32 113.37C269.28 113.37 267.6 112.68 266.25 111.31C264.92 109.92 264.25 108.22 264.25 106.18C264.25 104.14 264.92 102.44 266.25 101.07C267.6 99.68 269.28 98.99 271.32 98.99C273.36 98.99 275.04 99.68 276.39 101.07C277.74 102.44 278.41 104.14 278.41 106.18C278.41 108.22 277.74 109.92 276.39 111.31C275.05 112.68 273.36 113.37 271.32 113.37ZM271.32 111.33C272.69 111.33 273.84 110.83 274.77 109.86C275.7 108.87 276.18 107.64 276.18 106.18C276.18 104.71 275.7 103.49 274.77 102.52C273.84 101.53 272.69 101.03 271.32 101.03C269.95 101.03 268.81 101.53 267.87 102.52C266.94 103.49 266.48 104.72 266.48 106.18C266.48 107.64 266.94 108.87 267.87 109.86C268.81 110.84 269.96 111.33 271.32 111.33Z" fill="#232021"/>
<path d="M286.15 113.11V99.25H288.05L295.87 109.29V99.25H298.01V113.11H296.17L288.29 103.03V113.11H286.15Z" fill="#232021"/>
<path d="M306.25 113.11V99.25H311.14C313.38 99.25 315.18 99.9 316.59 101.19C318 102.48 318.71 104.14 318.71 106.18C318.71 108.22 318 109.9 316.59 111.19C315.18 112.48 313.38 113.11 311.14 113.11H306.25ZM308.43 111.11H310.95C312.67 111.11 314.04 110.67 315.01 109.78C315.98 108.89 316.48 107.7 316.48 106.18C316.48 104.66 315.98 103.47 315.01 102.58C314.04 101.69 312.67 101.25 310.95 101.25H308.43V111.11Z" fill="#232021"/>
<path d="M333.02 113.37C330.98 113.37 329.3 112.68 327.95 111.31C326.62 109.92 325.95 108.22 325.95 106.18C325.95 104.14 326.62 102.44 327.95 101.07C329.3 99.68 330.98 98.99 333.02 98.99C335.06 98.99 336.74 99.68 338.09 101.07C339.44 102.44 340.11 104.14 340.11 106.18C340.11 108.22 339.44 109.92 338.09 111.31C336.74 112.68 335.06 113.37 333.02 113.37ZM333.02 111.33C334.39 111.33 335.54 110.83 336.47 109.86C337.4 108.87 337.88 107.64 337.88 106.18C337.88 104.71 337.4 103.49 336.47 102.52C335.54 101.53 334.39 101.03 333.02 101.03C331.65 101.03 330.51 101.53 329.57 102.52C328.64 103.49 328.18 104.72 328.18 106.18C328.18 107.64 328.64 108.87 329.57 109.86C330.5 110.84 331.65 111.33 333.02 111.33Z" fill="#232021"/>
<path d="M359.37 111.35C357.98 109.98 357.29 108.26 357.29 106.18C357.29 104.1 357.98 102.38 359.37 101.03C360.76 99.66 362.5 98.99 364.6 98.99C366.03 98.99 367.27 99.31 368.36 99.92V102.12C367.23 101.39 365.98 101.03 364.62 101.03C363.17 101.03 361.95 101.53 360.98 102.5C360.01 103.47 359.53 104.7 359.53 106.18C359.53 107.67 360.02 108.91 361 109.88C361.99 110.85 363.22 111.33 364.7 111.33C366.26 111.33 367.59 110.91 368.66 110.06V112.26C367.51 112.99 366.17 113.37 364.6 113.37C362.52 113.37 360.78 112.7 359.37 111.35Z" fill="#232021"/>
<path d="M376.12 113.11V99.25H378.32V111.11H385.69V113.11H376.12Z" fill="#232021"/>
<path d="M392.62 99.25H394.8V107.33C394.8 109.92 396.23 111.33 398.42 111.33C400.62 111.33 402.06 109.92 402.06 107.33V99.25H404.24V107.25C404.24 109.19 403.71 110.7 402.62 111.76C401.53 112.83 400.14 113.36 398.42 113.36C396.7 113.36 395.31 112.83 394.22 111.78C393.15 110.71 392.62 109.21 392.62 107.25V99.25Z" fill="#232021"/>
<path d="M412.28 113.11V99.25H418.58C421.06 99.25 422.66 100.52 422.66 102.66C422.66 104.09 421.87 105.12 420.82 105.51C422.5 105.83 423.77 107.17 423.77 109.21C423.77 110.38 423.35 111.33 422.5 112.04C421.67 112.75 420.54 113.11 419.09 113.11H412.28ZM414.46 104.84H418.2C419.65 104.84 420.5 104.21 420.5 103.04C420.5 101.87 419.65 101.26 418.2 101.26H414.46V104.84ZM414.46 111.11H418.7C420.38 111.11 421.41 110.3 421.41 108.89C421.41 107.52 420.42 106.75 418.7 106.75H414.46V111.11Z" fill="#232021"/>
</svg>
