<svg width="28" height="28" viewBox="0 0 28 28" fill="none" xmlns="http://www.w3.org/2000/svg">
<path fill-rule="evenodd" clip-rule="evenodd" d="M3.33366 0.666504C1.8609 0.666504 0.666992 1.86041 0.666992 3.33317V5.99984V9.99984C0.666992 11.4726 1.8609 12.6665 3.33366 12.6665H10.0003C11.4731 12.6665 12.667 11.4726 12.667 9.99984V3.33317C12.667 1.86041 11.4731 0.666504 10.0003 0.666504H3.33366ZM3.33366 3.33317H10.0003V9.99984H3.33366V5.99984V3.33317Z" fill="#9FA6BA"/>
<path fill-rule="evenodd" clip-rule="evenodd" d="M18.0003 0.666504C16.5276 0.666504 15.3337 1.86041 15.3337 3.33317V5.99984V9.99984C15.3337 11.4726 16.5276 12.6665 18.0003 12.6665H24.667C26.1398 12.6665 27.3337 11.4726 27.3337 9.99984V3.33317C27.3337 1.86041 26.1398 0.666504 24.667 0.666504H18.0003ZM18.0003 3.33317H24.667V9.99984H18.0003V5.99984V3.33317Z" fill="#9FA6BA"/>
<path fill-rule="evenodd" clip-rule="evenodd" d="M18.0003 15.3332C16.5276 15.3332 15.3337 16.5271 15.3337 17.9998V20.6665V24.6665C15.3337 26.1393 16.5276 27.3332 18.0003 27.3332H24.667C26.1398 27.3332 27.3337 26.1393 27.3337 24.6665V17.9998C27.3337 16.5271 26.1398 15.3332 24.667 15.3332H18.0003ZM18.0003 17.9998H24.667V24.6665H18.0003V20.6665V17.9998Z" fill="#9FA6BA"/>
<path fill-rule="evenodd" clip-rule="evenodd" d="M3.33366 15.3332C1.8609 15.3332 0.666992 16.5271 0.666992 17.9998V20.6665V24.6665C0.666992 26.1393 1.8609 27.3332 3.33366 27.3332H10.0003C11.4731 27.3332 12.667 26.1393 12.667 24.6665V17.9998C12.667 16.5271 11.4731 15.3332 10.0003 15.3332H3.33366ZM3.33366 17.9998H10.0003V24.6665H3.33366V20.6665V17.9998Z" fill="#9FA6BA"/>
</svg>
