<svg width="62" height="62" viewBox="0 0 62 62" fill="none" xmlns="http://www.w3.org/2000/svg">
<path fill-rule="evenodd" clip-rule="evenodd" d="M0.166992 31.0001C0.166992 48.0289 13.9715 61.8334 31.0003 61.8334C48.0291 61.8334 61.8337 48.0289 61.8337 31.0001C61.8337 13.9713 48.0291 0.166748 31.0003 0.166748C13.9715 0.166748 0.166992 13.9713 0.166992 31.0001ZM6.33366 31.0001C6.33366 17.3771 17.3773 6.33342 31.0003 6.33342C44.6234 6.33342 55.667 17.3771 55.667 31.0001C55.667 44.6231 44.6234 55.6668 31.0003 55.6668C17.3773 55.6668 6.33366 44.6231 6.33366 31.0001ZM26.4621 22.1149C27.4647 21.5784 28.6812 21.6372 29.6273 22.2679L38.8773 28.4346C39.7351 29.0065 40.2503 29.9692 40.2503 31.0001C40.2503 32.031 39.7351 32.9937 38.8773 33.5656L29.6273 39.7322C28.6812 40.363 27.4647 40.4218 26.4621 39.8853C25.4595 39.3487 24.8337 38.3039 24.8337 37.1668V24.8334C24.8337 23.6963 25.4595 22.6515 26.4621 22.1149Z" fill="#A8A8A8"/>
</svg>
