<svg width="20" height="20" viewBox="0 0 20 20" fill="none" xmlns="http://www.w3.org/2000/svg">
<path fill-rule="evenodd" clip-rule="evenodd" d="M7.81692 1.13738L7.20125 1.91855H5.17228C3.52338 1.91855 2.18668 3.27537 2.18668 4.9491V6.89837L1.32949 7.47844C-0.443162 8.67799 -0.443164 11.322 1.32949 12.5216L2.18668 13.1016V15.0509C2.18668 16.7246 3.52338 18.0814 5.17228 18.0814H7.20125L7.81692 18.8626C9.01214 20.3791 11.2844 20.3791 12.4797 18.8626L13.0953 18.0814H15.1243C16.7732 18.0814 18.1099 16.7246 18.1099 15.0509V12.9914L18.8795 12.3665C20.3735 11.1533 20.3735 8.84674 18.8795 7.63354L18.1099 7.0086V4.9491C18.1099 3.27537 16.7732 1.91855 15.1243 1.91855H13.0953L12.4797 1.13738C11.2844 -0.379127 9.01213 -0.379124 7.81692 1.13738ZM7.67957 3.93892C7.98189 3.93892 8.26783 3.79942 8.45669 3.55979L9.37117 2.39949C9.76957 1.89399 10.527 1.89399 10.9254 2.39949L11.8399 3.55979C12.0287 3.79942 12.3147 3.93892 12.617 3.93892H15.1243C15.6739 3.93892 16.1195 4.39119 16.1195 4.9491V7.49412C16.1195 7.801 16.2569 8.09124 16.493 8.28294L17.6361 9.21118C18.1341 9.61558 18.1341 10.3844 17.6361 10.7888L16.493 11.7171C16.2569 11.9088 16.1195 12.199 16.1195 12.5059V15.0509C16.1195 15.6088 15.6739 16.0611 15.1243 16.0611H12.617C12.3147 16.0611 12.0287 16.2006 11.8399 16.4402L10.9254 17.6005C10.527 18.106 9.76957 18.106 9.37117 17.6005L8.45669 16.4402C8.26783 16.2006 7.98189 16.0611 7.67957 16.0611H5.17228C4.62265 16.0611 4.17708 15.6088 4.17708 15.0509V12.561C4.17708 12.2232 4.01078 11.9078 3.73392 11.7205L2.43356 10.8405C1.84268 10.4407 1.84268 9.55933 2.43356 9.15948L3.73392 8.27953C4.01078 8.09217 4.17708 7.77676 4.17708 7.43901V4.9491C4.17708 4.39119 4.62265 3.93892 5.17228 3.93892H7.67957ZM10 9C10.5523 9 11 9.44772 11 10C11 10.5523 10.5523 11 10 11C9.44771 11 9 10.5523 9 10C9 9.44772 9.44771 9 10 9ZM7 10C7 11.6569 8.34315 13 10 13C11.6569 13 13 11.6569 13 10C13 8.34315 11.6569 7 10 7C8.34315 7 7 8.34315 7 10Z" fill="#4F3333"/>
</svg>
